<svg width="9" height="6" viewBox="0 0 9 6" fill="none" xmlns="http://www.w3.org/2000/svg">
<path opacity="0.99" d="M3.3179 5.86575C3.22597 5.86586 3.13492 5.84779 3.04998 5.81259C2.96505 5.7774 2.88791 5.72576 2.823 5.66065L0.854252 3.69193C0.724353 3.56039 0.651769 3.3828 0.652347 3.19793C0.652925 3.01306 0.726617 2.83593 0.857336 2.70521C0.988055 2.57448 1.16518 2.50078 1.35005 2.5002C1.53492 2.49961 1.71251 2.57219 1.84405 2.70208L3.31788 4.17591L7.15425 0.339583C7.2858 0.209689 7.46339 0.137113 7.64825 0.137699C7.83312 0.138284 8.01025 0.211984 8.14097 0.342708C8.27169 0.473432 8.34538 0.650564 8.34596 0.835431C8.34653 1.0203 8.27395 1.19789 8.14405 1.32943L3.8128 5.66068C3.74789 5.72578 3.67075 5.77741 3.58582 5.8126C3.50089 5.8478 3.40984 5.86586 3.3179 5.86575Z" fill="white"/>
</svg>
