<svg width="20" height="20" viewBox="0 0 20 20" fill="none" xmlns="http://www.w3.org/2000/svg">
<g clip-path="url(#clip0_113_4645)">
<mask id="path-1-inside-1_113_4645" fill="white">
<path d="M15.3333 17.9998L14.8987 18.5052C15.0253 18.6136 15.188 18.6707 15.3547 18.6652L15.3333 17.9998ZM13.912 15.7172C13.8024 15.5784 13.6421 15.4888 13.4665 15.4682C13.2908 15.4475 13.1141 15.4975 12.9753 15.6072C12.8365 15.7168 12.747 15.8771 12.7264 16.0527C12.7057 16.2284 12.7557 16.405 12.8653 16.5438L13.912 15.7172ZM14.4427 15.1705L14.2107 14.5465C14.2017 14.5495 14.1928 14.5526 14.184 14.5558L14.4427 15.1705ZM12.1253 15.8585L12.0133 15.1998L12.0027 15.2012L12.1253 15.8572V15.8585ZM7.98668 15.8425L7.86001 16.4958L7.86401 16.4972L7.98668 15.8425ZM5.63734 15.1558L5.39468 15.7758L5.63734 15.1545V15.1558ZM4.47068 14.6118L4.10001 15.1652C4.11427 15.1751 4.12895 15.1845 4.14401 15.1932L4.47068 14.6118ZM4.32668 14.5318L4.69601 13.9772C4.67291 13.9619 4.64886 13.9481 4.62401 13.9358L4.32668 14.5318ZM4.26268 14.4838L4.73334 14.0118C4.68977 13.9684 4.64042 13.9311 4.58668 13.9012L4.26268 14.4838ZM7.13468 16.5105C7.2443 16.3717 7.2943 16.195 7.27367 16.0194C7.25304 15.8437 7.16347 15.6835 7.02468 15.5738C6.88588 15.4642 6.70922 15.4142 6.53356 15.4348C6.3579 15.4555 6.19763 15.545 6.08801 15.6838L7.13468 16.5105ZM4.66668 17.9998L4.64534 18.6665C4.81517 18.6719 4.98066 18.6123 5.10801 18.4998L4.66668 17.9998ZM0.666677 14.9958H9.90498e-06C-0.00018477 15.0315 0.0024905 15.0672 0.0080099 15.1025L0.666677 14.9958ZM2.96801 3.6785L2.56801 3.14516C2.46622 3.22171 2.38849 3.32582 2.34401 3.44516L2.96801 3.6785ZM7.45868 1.99983L8.12268 1.93716C8.10734 1.77438 8.03272 1.6229 7.913 1.51154C7.79328 1.40017 7.63681 1.33669 7.47334 1.33316L7.46001 1.99983H7.45868ZM6.95468 3.74116C6.97147 3.91727 7.05754 4.07948 7.19394 4.19213C7.33034 4.30478 7.50591 4.35863 7.68201 4.34183C7.85811 4.32503 8.02033 4.23897 8.13298 4.10256C8.24563 3.96616 8.29947 3.7906 8.28268 3.6145L6.95468 3.74116ZM11.656 3.65716C11.6336 3.83256 11.6817 4.00969 11.7898 4.14959C11.898 4.2895 12.0573 4.38071 12.2327 4.40316C12.4081 4.42562 12.5852 4.37748 12.7251 4.26933C12.865 4.16118 12.9562 4.00189 12.9787 3.8265L11.656 3.65716ZM12.5413 1.99983L12.5267 1.33316C12.3672 1.33664 12.2142 1.39722 12.0955 1.50389C11.9769 1.61056 11.9004 1.75625 11.88 1.9145L12.5413 1.99983ZM17.032 3.6785L17.656 3.44516C17.6115 3.32582 17.5338 3.22171 17.432 3.14516L17.032 3.6785ZM19.3333 14.9958L19.992 15.1025C19.9975 15.0672 20.0002 15.0315 20 14.9958H19.3333ZM8.64134 11.7332L7.97468 11.7225V11.7332H8.64134ZM15.3333 17.9998L15.768 17.4945L15.7653 17.4918C15.7452 17.4757 15.7256 17.4588 15.7067 17.4412C15.4649 17.2319 15.2266 17.0185 14.992 16.8012C14.5587 16.4038 14.112 15.9718 13.912 15.7172L12.8653 16.5438C13.1427 16.8958 13.6693 17.3972 14.0893 17.7838C14.3497 18.023 14.6132 18.2586 14.88 18.4905L14.8933 18.5012L14.8973 18.5038L15.3333 17.9998ZM15.9147 13.6718C15.3013 14.0758 14.7227 14.3558 14.2107 14.5465L14.6747 15.7958C15.3686 15.5346 16.0306 15.1956 16.648 14.7852L15.9147 13.6718ZM14.1853 14.5558C13.4886 14.8538 12.7598 15.0703 12.0133 15.2012L12.2373 16.5158C13.084 16.3677 13.9108 16.1226 14.7013 15.7852L14.1853 14.5558ZM12.0027 15.2025C10.7152 15.4393 9.39484 15.4339 8.10934 15.1865L7.86401 16.4972C9.31165 16.7749 10.7984 16.7803 12.248 16.5132L12.0027 15.2025ZM8.11334 15.1878C7.35055 15.0385 6.603 14.8198 5.88001 14.5345L5.39468 15.7758C6.07734 16.0425 6.90134 16.3118 7.86001 16.4958L8.11334 15.1878ZM5.88001 14.5345C5.50757 14.3915 5.14538 14.2231 4.79601 14.0305L4.14401 15.1932C4.57868 15.4372 5.00801 15.6252 5.39468 15.7758L5.88001 14.5345ZM4.84001 14.0572C4.79418 14.0264 4.74604 13.9992 4.69601 13.9758C4.66934 13.9625 4.68134 13.9665 4.69601 13.9772L3.95601 15.0865C4.00201 15.117 4.05014 15.1442 4.10001 15.1678C4.12801 15.1812 4.11601 15.1772 4.10001 15.1652L4.84134 14.0585L4.84001 14.0572ZM4.62401 13.9358C4.66417 13.9559 4.70103 13.982 4.73334 14.0132L3.79068 14.9558C3.82134 14.9865 3.89868 15.0625 4.02801 15.1292L4.62401 13.9358ZM4.58668 13.9012C4.45967 13.8308 4.33515 13.7561 4.21334 13.6772L4.19868 13.6665C4.19823 13.6665 4.19779 13.6665 4.19734 13.6665L3.81468 14.2132L3.43334 14.7585L3.43468 14.7598L3.43734 14.7625L3.44668 14.7678L3.47468 14.7865L3.57468 14.8518C3.66001 14.9052 3.78268 14.9798 3.93868 15.0665L4.58668 13.9012ZM6.08801 15.6852C5.88534 15.9425 5.43601 16.3852 5.00401 16.7905C4.76752 17.0116 4.52839 17.2298 4.28668 17.4452L4.24134 17.4865L4.22801 17.4972L4.22668 17.4998H4.22534L4.66668 17.9998L5.10801 18.4998L5.10934 18.4985L5.11334 18.4958L5.12668 18.4838L5.17468 18.4412C5.42357 18.2178 5.67025 17.992 5.91468 17.7638C6.33468 17.3692 6.85868 16.8612 7.13468 16.5105L6.08801 15.6838V15.6852ZM4.68801 17.3332C3.13334 17.2838 2.31734 16.6385 1.87468 16.0532C1.62845 15.7263 1.44739 15.3551 1.34134 14.9598C1.33492 14.9351 1.32914 14.9102 1.32401 14.8852V14.8878L0.666677 14.9945C0.00800995 15.1012 0.0080099 15.1012 0.00934324 15.1025V15.1105C0.0190942 15.1675 0.0315527 15.224 0.0466766 15.2798C0.196123 15.8504 0.455656 16.3862 0.810677 16.8572C1.48401 17.7465 2.66801 18.6038 4.64534 18.6665L4.68801 17.3332ZM1.33334 14.9958C1.33334 12.5065 1.89334 9.7425 2.46268 7.57716C2.76476 6.43036 3.10989 5.29534 3.49734 4.1745C3.52662 4.09165 3.5564 4.00898 3.58668 3.9265L3.59201 3.91316V3.91183L2.96801 3.6785L2.34268 3.44516V3.4465L2.34134 3.4505L2.33601 3.46516C2.303 3.55369 2.271 3.64258 2.24001 3.73183C1.84051 4.88645 1.48471 6.05572 1.17334 7.23716C0.590677 9.44383 9.90498e-06 12.3372 9.90498e-06 14.9958H1.33334ZM3.36801 4.21183C4.43468 3.41183 5.47068 3.02516 6.23468 2.8385C6.6109 2.74677 6.99472 2.68965 7.38134 2.66783C7.40311 2.66702 7.42489 2.66658 7.44668 2.6665H7.44534L7.45868 1.99983L7.47201 1.33316H7.46668C7.45423 1.33296 7.44179 1.33296 7.42934 1.33316H7.33868C7.23182 1.33704 7.1251 1.34416 7.01868 1.3545C6.64794 1.39042 6.2803 1.45325 5.91868 1.5425C4.70513 1.84389 3.56528 2.38819 2.56801 3.1425L3.36801 4.20916V4.21183ZM6.79468 2.0625L6.95468 3.74116L8.28268 3.6145L8.12268 1.93716L6.79468 2.0625ZM12.9787 3.8265L13.2027 2.08516L11.88 1.9145L11.656 3.65716L12.9787 3.8265ZM12.5413 1.99983L12.5547 2.6665H12.5533C12.5751 2.66542 12.5969 2.66542 12.6187 2.6665C12.6693 2.66916 12.752 2.67316 12.8573 2.68383C13.0707 2.7025 13.3827 2.7465 13.7653 2.83983C14.8038 3.09878 15.779 3.5655 16.632 4.21183L17.432 3.14516C16.4348 2.39082 15.2949 1.84652 14.0813 1.54516C13.7198 1.45545 13.3521 1.39218 12.9813 1.35583C12.832 1.34192 12.682 1.33436 12.532 1.33316H12.528L12.5413 1.99983ZM17.032 3.6785L16.4067 3.9105L16.408 3.9145L16.4133 3.9265L16.4307 3.97583L16.5013 4.1745C16.8892 5.29533 17.2348 6.43035 17.5373 7.57716C18.108 9.7425 18.6667 12.5065 18.6667 14.9958H20C20 12.3372 19.408 9.44383 18.8267 7.23716C18.5152 6.05575 18.1594 4.88647 17.76 3.73183C17.7351 3.66147 17.7097 3.59124 17.684 3.52116L17.664 3.46516L17.6587 3.45183L17.6573 3.4465L17.0307 3.6785H17.032ZM19.3333 14.9958L18.676 14.8892V14.8852L18.6733 14.8958L18.66 14.9585C18.644 15.0185 18.62 15.1092 18.5787 15.2212C18.496 15.4478 18.356 15.7492 18.1253 16.0532C17.6827 16.6385 16.8667 17.2838 15.312 17.3332L15.3547 18.6665C17.332 18.6038 18.5147 17.7465 19.1893 16.8585C19.5445 16.3871 19.804 15.8508 19.9533 15.2798C19.9664 15.2277 19.978 15.1753 19.988 15.1225L19.9907 15.1092V15.1038C19.9907 15.1025 19.9907 15.1012 19.3333 14.9958ZM7.01201 9.29316C5.67601 9.29316 4.71468 10.4492 4.71468 11.7332H6.04801C6.04801 11.0692 6.52401 10.6265 7.01201 10.6265V9.29316ZM4.71468 11.7332C4.71468 13.0225 5.69601 14.1732 7.01201 14.1732V12.8398C6.53601 12.8398 6.04801 12.3945 6.04801 11.7332H4.71468ZM7.01201 14.1732C8.34534 14.1732 9.30801 13.0185 9.30801 11.7332H7.97468C7.97468 12.3998 7.49868 12.8398 7.01201 12.8398V14.1732ZM9.30668 11.7465C9.32801 10.4425 8.33601 9.29316 7.01068 9.29316V10.6278C7.50668 10.6278 7.98401 11.0785 7.97334 11.7238L9.30668 11.7465ZM12.844 9.29316C11.508 9.2945 10.5467 10.4505 10.5467 11.7345H11.88C11.88 11.0705 12.356 10.6278 12.844 10.6278V9.2945V9.29316ZM10.5467 11.7358C10.5467 13.0252 11.528 14.1758 12.844 14.1758V12.8425C12.368 12.8425 11.88 12.3972 11.88 11.7358H10.5467ZM12.844 14.1758C14.1773 14.1758 15.14 13.0212 15.14 11.7358H13.8067C13.8067 12.4025 13.3307 12.8425 12.844 12.8425V14.1758ZM15.14 11.7358C15.14 10.4518 14.1787 9.29583 12.844 9.29583V10.6292C13.3307 10.6292 13.8067 11.0718 13.8067 11.7358H15.14ZM4.98668 5.91983C6.91068 4.8705 8.47868 4.38116 10.004 4.37983C11.5307 4.37983 13.0947 4.8665 15.0147 5.9185L15.6547 4.7505C13.6253 3.63716 11.8347 3.04516 10.004 3.0465C8.17334 3.0465 6.38134 3.63983 4.34934 4.74916L4.98668 5.91983Z"/>
</mask>
<path d="M15.3333 17.9998L14.8987 18.5052C15.0253 18.6136 15.188 18.6707 15.3547 18.6652L15.3333 17.9998ZM13.912 15.7172C13.8024 15.5784 13.6421 15.4888 13.4665 15.4682C13.2908 15.4475 13.1141 15.4975 12.9753 15.6072C12.8365 15.7168 12.747 15.8771 12.7264 16.0527C12.7057 16.2284 12.7557 16.405 12.8653 16.5438L13.912 15.7172ZM14.4427 15.1705L14.2107 14.5465C14.2017 14.5495 14.1928 14.5526 14.184 14.5558L14.4427 15.1705ZM12.1253 15.8585L12.0133 15.1998L12.0027 15.2012L12.1253 15.8572V15.8585ZM7.98668 15.8425L7.86001 16.4958L7.86401 16.4972L7.98668 15.8425ZM5.63734 15.1558L5.39468 15.7758L5.63734 15.1545V15.1558ZM4.47068 14.6118L4.10001 15.1652C4.11427 15.1751 4.12895 15.1845 4.14401 15.1932L4.47068 14.6118ZM4.32668 14.5318L4.69601 13.9772C4.67291 13.9619 4.64886 13.9481 4.62401 13.9358L4.32668 14.5318ZM4.26268 14.4838L4.73334 14.0118C4.68977 13.9684 4.64042 13.9311 4.58668 13.9012L4.26268 14.4838ZM7.13468 16.5105C7.2443 16.3717 7.2943 16.195 7.27367 16.0194C7.25304 15.8437 7.16347 15.6835 7.02468 15.5738C6.88588 15.4642 6.70922 15.4142 6.53356 15.4348C6.3579 15.4555 6.19763 15.545 6.08801 15.6838L7.13468 16.5105ZM4.66668 17.9998L4.64534 18.6665C4.81517 18.6719 4.98066 18.6123 5.10801 18.4998L4.66668 17.9998ZM0.666677 14.9958H9.90498e-06C-0.00018477 15.0315 0.0024905 15.0672 0.0080099 15.1025L0.666677 14.9958ZM2.96801 3.6785L2.56801 3.14516C2.46622 3.22171 2.38849 3.32582 2.34401 3.44516L2.96801 3.6785ZM7.45868 1.99983L8.12268 1.93716C8.10734 1.77438 8.03272 1.6229 7.913 1.51154C7.79328 1.40017 7.63681 1.33669 7.47334 1.33316L7.46001 1.99983H7.45868ZM6.95468 3.74116C6.97147 3.91727 7.05754 4.07948 7.19394 4.19213C7.33034 4.30478 7.50591 4.35863 7.68201 4.34183C7.85811 4.32503 8.02033 4.23897 8.13298 4.10256C8.24563 3.96616 8.29947 3.7906 8.28268 3.6145L6.95468 3.74116ZM11.656 3.65716C11.6336 3.83256 11.6817 4.00969 11.7898 4.14959C11.898 4.2895 12.0573 4.38071 12.2327 4.40316C12.4081 4.42562 12.5852 4.37748 12.7251 4.26933C12.865 4.16118 12.9562 4.00189 12.9787 3.8265L11.656 3.65716ZM12.5413 1.99983L12.5267 1.33316C12.3672 1.33664 12.2142 1.39722 12.0955 1.50389C11.9769 1.61056 11.9004 1.75625 11.88 1.9145L12.5413 1.99983ZM17.032 3.6785L17.656 3.44516C17.6115 3.32582 17.5338 3.22171 17.432 3.14516L17.032 3.6785ZM19.3333 14.9958L19.992 15.1025C19.9975 15.0672 20.0002 15.0315 20 14.9958H19.3333ZM8.64134 11.7332L7.97468 11.7225V11.7332H8.64134ZM15.3333 17.9998L15.768 17.4945L15.7653 17.4918C15.7452 17.4757 15.7256 17.4588 15.7067 17.4412C15.4649 17.2319 15.2266 17.0185 14.992 16.8012C14.5587 16.4038 14.112 15.9718 13.912 15.7172L12.8653 16.5438C13.1427 16.8958 13.6693 17.3972 14.0893 17.7838C14.3497 18.023 14.6132 18.2586 14.88 18.4905L14.8933 18.5012L14.8973 18.5038L15.3333 17.9998ZM15.9147 13.6718C15.3013 14.0758 14.7227 14.3558 14.2107 14.5465L14.6747 15.7958C15.3686 15.5346 16.0306 15.1956 16.648 14.7852L15.9147 13.6718ZM14.1853 14.5558C13.4886 14.8538 12.7598 15.0703 12.0133 15.2012L12.2373 16.5158C13.084 16.3677 13.9108 16.1226 14.7013 15.7852L14.1853 14.5558ZM12.0027 15.2025C10.7152 15.4393 9.39484 15.4339 8.10934 15.1865L7.86401 16.4972C9.31165 16.7749 10.7984 16.7803 12.248 16.5132L12.0027 15.2025ZM8.11334 15.1878C7.35055 15.0385 6.603 14.8198 5.88001 14.5345L5.39468 15.7758C6.07734 16.0425 6.90134 16.3118 7.86001 16.4958L8.11334 15.1878ZM5.88001 14.5345C5.50757 14.3915 5.14538 14.2231 4.79601 14.0305L4.14401 15.1932C4.57868 15.4372 5.00801 15.6252 5.39468 15.7758L5.88001 14.5345ZM4.84001 14.0572C4.79418 14.0264 4.74604 13.9992 4.69601 13.9758C4.66934 13.9625 4.68134 13.9665 4.69601 13.9772L3.95601 15.0865C4.00201 15.117 4.05014 15.1442 4.10001 15.1678C4.12801 15.1812 4.11601 15.1772 4.10001 15.1652L4.84134 14.0585L4.84001 14.0572ZM4.62401 13.9358C4.66417 13.9559 4.70103 13.982 4.73334 14.0132L3.79068 14.9558C3.82134 14.9865 3.89868 15.0625 4.02801 15.1292L4.62401 13.9358ZM4.58668 13.9012C4.45967 13.8308 4.33515 13.7561 4.21334 13.6772L4.19868 13.6665C4.19823 13.6665 4.19779 13.6665 4.19734 13.6665L3.81468 14.2132L3.43334 14.7585L3.43468 14.7598L3.43734 14.7625L3.44668 14.7678L3.47468 14.7865L3.57468 14.8518C3.66001 14.9052 3.78268 14.9798 3.93868 15.0665L4.58668 13.9012ZM6.08801 15.6852C5.88534 15.9425 5.43601 16.3852 5.00401 16.7905C4.76752 17.0116 4.52839 17.2298 4.28668 17.4452L4.24134 17.4865L4.22801 17.4972L4.22668 17.4998H4.22534L4.66668 17.9998L5.10801 18.4998L5.10934 18.4985L5.11334 18.4958L5.12668 18.4838L5.17468 18.4412C5.42357 18.2178 5.67025 17.992 5.91468 17.7638C6.33468 17.3692 6.85868 16.8612 7.13468 16.5105L6.08801 15.6838V15.6852ZM4.68801 17.3332C3.13334 17.2838 2.31734 16.6385 1.87468 16.0532C1.62845 15.7263 1.44739 15.3551 1.34134 14.9598C1.33492 14.9351 1.32914 14.9102 1.32401 14.8852V14.8878L0.666677 14.9945C0.00800995 15.1012 0.0080099 15.1012 0.00934324 15.1025V15.1105C0.0190942 15.1675 0.0315527 15.224 0.0466766 15.2798C0.196123 15.8504 0.455656 16.3862 0.810677 16.8572C1.48401 17.7465 2.66801 18.6038 4.64534 18.6665L4.68801 17.3332ZM1.33334 14.9958C1.33334 12.5065 1.89334 9.7425 2.46268 7.57716C2.76476 6.43036 3.10989 5.29534 3.49734 4.1745C3.52662 4.09165 3.5564 4.00898 3.58668 3.9265L3.59201 3.91316V3.91183L2.96801 3.6785L2.34268 3.44516V3.4465L2.34134 3.4505L2.33601 3.46516C2.303 3.55369 2.271 3.64258 2.24001 3.73183C1.84051 4.88645 1.48471 6.05572 1.17334 7.23716C0.590677 9.44383 9.90498e-06 12.3372 9.90498e-06 14.9958H1.33334ZM3.36801 4.21183C4.43468 3.41183 5.47068 3.02516 6.23468 2.8385C6.6109 2.74677 6.99472 2.68965 7.38134 2.66783C7.40311 2.66702 7.42489 2.66658 7.44668 2.6665H7.44534L7.45868 1.99983L7.47201 1.33316H7.46668C7.45423 1.33296 7.44179 1.33296 7.42934 1.33316H7.33868C7.23182 1.33704 7.1251 1.34416 7.01868 1.3545C6.64794 1.39042 6.2803 1.45325 5.91868 1.5425C4.70513 1.84389 3.56528 2.38819 2.56801 3.1425L3.36801 4.20916V4.21183ZM6.79468 2.0625L6.95468 3.74116L8.28268 3.6145L8.12268 1.93716L6.79468 2.0625ZM12.9787 3.8265L13.2027 2.08516L11.88 1.9145L11.656 3.65716L12.9787 3.8265ZM12.5413 1.99983L12.5547 2.6665H12.5533C12.5751 2.66542 12.5969 2.66542 12.6187 2.6665C12.6693 2.66916 12.752 2.67316 12.8573 2.68383C13.0707 2.7025 13.3827 2.7465 13.7653 2.83983C14.8038 3.09878 15.779 3.5655 16.632 4.21183L17.432 3.14516C16.4348 2.39082 15.2949 1.84652 14.0813 1.54516C13.7198 1.45545 13.3521 1.39218 12.9813 1.35583C12.832 1.34192 12.682 1.33436 12.532 1.33316H12.528L12.5413 1.99983ZM17.032 3.6785L16.4067 3.9105L16.408 3.9145L16.4133 3.9265L16.4307 3.97583L16.5013 4.1745C16.8892 5.29533 17.2348 6.43035 17.5373 7.57716C18.108 9.7425 18.6667 12.5065 18.6667 14.9958H20C20 12.3372 19.408 9.44383 18.8267 7.23716C18.5152 6.05575 18.1594 4.88647 17.76 3.73183C17.7351 3.66147 17.7097 3.59124 17.684 3.52116L17.664 3.46516L17.6587 3.45183L17.6573 3.4465L17.0307 3.6785H17.032ZM19.3333 14.9958L18.676 14.8892V14.8852L18.6733 14.8958L18.66 14.9585C18.644 15.0185 18.62 15.1092 18.5787 15.2212C18.496 15.4478 18.356 15.7492 18.1253 16.0532C17.6827 16.6385 16.8667 17.2838 15.312 17.3332L15.3547 18.6665C17.332 18.6038 18.5147 17.7465 19.1893 16.8585C19.5445 16.3871 19.804 15.8508 19.9533 15.2798C19.9664 15.2277 19.978 15.1753 19.988 15.1225L19.9907 15.1092V15.1038C19.9907 15.1025 19.9907 15.1012 19.3333 14.9958ZM7.01201 9.29316C5.67601 9.29316 4.71468 10.4492 4.71468 11.7332H6.04801C6.04801 11.0692 6.52401 10.6265 7.01201 10.6265V9.29316ZM4.71468 11.7332C4.71468 13.0225 5.69601 14.1732 7.01201 14.1732V12.8398C6.53601 12.8398 6.04801 12.3945 6.04801 11.7332H4.71468ZM7.01201 14.1732C8.34534 14.1732 9.30801 13.0185 9.30801 11.7332H7.97468C7.97468 12.3998 7.49868 12.8398 7.01201 12.8398V14.1732ZM9.30668 11.7465C9.32801 10.4425 8.33601 9.29316 7.01068 9.29316V10.6278C7.50668 10.6278 7.98401 11.0785 7.97334 11.7238L9.30668 11.7465ZM12.844 9.29316C11.508 9.2945 10.5467 10.4505 10.5467 11.7345H11.88C11.88 11.0705 12.356 10.6278 12.844 10.6278V9.2945V9.29316ZM10.5467 11.7358C10.5467 13.0252 11.528 14.1758 12.844 14.1758V12.8425C12.368 12.8425 11.88 12.3972 11.88 11.7358H10.5467ZM12.844 14.1758C14.1773 14.1758 15.14 13.0212 15.14 11.7358H13.8067C13.8067 12.4025 13.3307 12.8425 12.844 12.8425V14.1758ZM15.14 11.7358C15.14 10.4518 14.1787 9.29583 12.844 9.29583V10.6292C13.3307 10.6292 13.8067 11.0718 13.8067 11.7358H15.14ZM4.98668 5.91983C6.91068 4.8705 8.47868 4.38116 10.004 4.37983C11.5307 4.37983 13.0947 4.8665 15.0147 5.9185L15.6547 4.7505C13.6253 3.63716 11.8347 3.04516 10.004 3.0465C8.17334 3.0465 6.38134 3.63983 4.34934 4.74916L4.98668 5.91983Z" stroke="#93989A" stroke-width="2" mask="url(#path-1-inside-1_113_4645)"/>
</g>
<defs>
<clipPath id="clip0_113_4645">
<rect width="20" height="20" fill="white"/>
</clipPath>
</defs>
</svg>
