<svg width="20" height="20" viewBox="0 0 20 20" fill="none" xmlns="http://www.w3.org/2000/svg">
<path d="M14.8332 1.74992L6.55825 3.82492C5.34991 4.12492 4.12491 5.34992 3.82491 6.55825L1.74991 14.8333C1.12491 17.3333 2.65825 18.8749 5.16658 18.2499L13.4416 16.1833C14.6416 15.8833 15.8749 14.6499 16.1749 13.4499L18.2499 5.16659C18.8749 2.66659 17.3332 1.12492 14.8332 1.74992Z" stroke="#B7BABC" stroke-width="1.5" stroke-linecap="round" stroke-linejoin="round"/>
<path d="M9.99967 12.9168C11.6105 12.9168 12.9163 11.611 12.9163 10.0002C12.9163 8.38933 11.6105 7.0835 9.99967 7.0835C8.38884 7.0835 7.08301 8.38933 7.08301 10.0002C7.08301 11.611 8.38884 12.9168 9.99967 12.9168Z" stroke="#B7BABC" stroke-width="1.5" stroke-linecap="round" stroke-linejoin="round"/>
</svg>
