<svg width="128" height="128" viewBox="0 0 128 128" fill="none" xmlns="http://www.w3.org/2000/svg">
<path d="M3.77002 71.7302L20.11 55.6302L47.93 50.7002L45.18 65.2602L7.57002 76.8202L5.14002 75.7702L3.77002 71.7302Z" fill="#CA2C31"/>
<path d="M22.9402 59.7599L5.2002 75.8799L18.2502 82.2399L38.0602 72.1299V67.3599L42.1102 56.4399L22.9402 59.7599ZM64.9202 88.1499L56.3502 91.8699L48.2602 109.02C48.2602 109.02 55.3802 124.79 55.7002 124.79C56.0202 124.79 60.0702 125.11 60.0702 125.11L74.4702 109.01L78.1102 81.5099L64.9202 88.1499Z" fill="#A02422"/>
<path d="M56.5002 100.84C56.5002 100.84 61.2702 99.87 64.6702 98.25C68.0702 96.63 72.2702 94.21 72.2702 94.21L70.7302 107.64L55.6802 124.77C55.6802 124.77 55.0902 124.04 52.5902 118.6C50.6002 114.26 49.9102 112.71 49.9102 112.71L56.5002 100.84Z" fill="#CA2C31"/>
<path d="M31.5799 80.6599C31.5799 80.6599 25.8399 80.1799 19.5499 88.1299C13.8099 95.3899 11.1199 107.21 10.0799 110.25C9.03986 113.29 6.54986 113.91 7.37986 115.3C8.20986 116.69 11.7999 116.61 16.2299 116.06C20.6599 115.51 24.4599 114.12 24.4599 114.12C24.4599 114.12 24.2699 114.6 23.6299 115.64C23.3999 116.01 22.5999 116.54 22.6599 117.09C22.7999 118.4 34.0199 118.43 42.9799 109.21C52.6599 99.2599 47.9599 91.0999 47.9599 91.0999L31.5799 80.6599Z" fill="#EF8E1E"/>
<path d="M33.3101 85.29C33.3101 85.29 27.1201 85.62 22.0001 93.57C16.8801 101.52 14.5001 110.73 14.9901 111.35C15.4701 111.97 25.0101 108.52 27.3001 109.21C28.8701 109.69 28.0601 111.28 28.4801 111.7C28.8301 112.05 32.9701 112.64 39.6701 105.38C46.3801 98.12 44.7901 87.92 44.7901 87.92L33.3101 85.29Z" fill="#FBF0B4"/>
<path d="M36.3502 74.4399C36.3502 74.4399 33.2402 77.2099 32.1302 78.7999C31.0202 80.3899 31.0202 80.5299 31.0902 81.0099C31.1602 81.4899 32.3102 86.7599 37.1002 91.3799C42.9802 97.0499 48.2302 97.8099 48.9902 97.8099C49.7502 97.8099 54.8002 92.1399 54.8002 92.1399L36.3502 74.4399Z" fill="#858585"/>
<path d="M50.1001 91.2398C50.1001 91.2398 55.1401 94.5498 63.5901 91.7098C75.1401 87.8298 83.6101 79.1498 94.1001 68.1898C104.22 57.6098 112.71 44.4798 112.71 44.4798L106.76 24.5498L50.1001 91.2398Z" fill="#437687"/>
<path d="M67.9902 80.3298L69.3802 76.0098L72.8602 76.4998C72.8602 76.4998 75.5102 77.7498 77.4602 78.6598C79.4102 79.5698 81.9202 80.2598 81.9202 80.2598L76.9702 84.4398C76.9702 84.4398 74.2702 83.4198 72.3002 82.5598C70.0802 81.5898 67.9902 80.3298 67.9902 80.3298Z" fill="#3F545F"/>
<path d="M84.3199 16.1401C84.3199 16.1401 74.6999 21.7201 60.9099 34.7701C48.4799 46.5301 39.2699 57.1701 37.0399 66.2201C35.1799 73.8001 36.1699 78.4001 40.3999 83.3701C44.8699 88.6301 50.1099 91.2401 50.1099 91.2401C50.1099 91.2401 54.0499 91.3001 70.4899 78.6501C90.9999 62.8601 107.43 36.4201 107.43 36.4201L84.3199 16.1401Z" fill="#8DAFBF"/>
<path d="M104.18 41.8398C104.18 41.8398 95.8099 38.2698 89.8399 29.9398C83.9099 21.6698 84.3799 16.0798 84.3799 16.0798C84.3799 16.0798 89.3399 12.1898 100.49 7.73983C107.99 4.74983 118.2 3.21983 121.56 5.70983C124.92 8.19983 119.26 20.6898 119.26 20.6898L108.95 40.6498L104.18 41.8398Z" fill="#D83F22"/>
<path d="M68.1698 80.4C68.1698 80.4 60.9398 76.71 56.3398 71.46C47.6398 61.55 45.8398 50.67 45.8398 50.67L50.2098 45.54C50.2098 45.54 51.2998 57.1 60.6298 67.09C66.7098 73.6 73.0598 76.58 73.0598 76.58C73.0598 76.58 71.7898 77.65 70.4298 78.69C69.5598 79.36 68.1698 80.4 68.1698 80.4Z" fill="#6896A5"/>
<path d="M112.71 44.48C112.71 44.48 117.05 39.25 121.16 27.46C126.9 11.02 121.9 6.04004 121.9 6.04004C121.9 6.04004 120.21 13.86 114.34 24.73C109.63 33.44 103.93 41.73 103.93 41.73C103.93 41.73 107.07 43.14 108.77 43.63C110.91 44.25 112.71 44.48 112.71 44.48Z" fill="#A02422"/>
<path d="M39.8102 69.6599C41.1102 70.8999 43.0802 69.5999 44.3702 66.5599C45.6702 63.5199 45.6502 61.8199 44.6502 61.0999C43.4102 60.1999 41.3302 62.1699 40.4202 63.9199C39.4202 65.8599 38.8302 68.7199 39.8102 69.6599ZM84.9502 20.1299C84.9502 20.1299 77.3402 25.5999 69.2202 33.0399C61.7702 39.8699 56.8302 45.2099 56.1502 46.4499C55.4302 47.7799 55.4202 49.6599 55.9802 50.6199C56.5402 51.5799 57.7802 52.0799 58.9102 51.2399C60.0402 50.3899 68.0902 41.4899 75.3602 35.1299C82.0102 29.3099 87.1402 25.6199 87.1402 25.6199C87.1402 25.6199 89.2202 21.9399 88.8802 21.0999C88.5402 20.2499 84.9502 20.1299 84.9502 20.1299Z" fill="#B3E1EE"/>
<path d="M84.9502 20.1301C84.9502 20.1301 90.5702 15.8201 96.6902 12.7901C102.38 9.97005 108.04 7.62005 109.06 9.66005C110.03 11.6001 103.69 14.2401 98.1102 17.8001C92.5302 21.3601 87.1602 25.6101 87.1602 25.6101C87.1602 25.6101 86.3402 24.1101 85.8102 22.7201C85.474 21.874 85.1869 21.0092 84.9502 20.1301Z" fill="#ED6A65"/>
<path d="M89.5901 39.2502C84.0201 34.1202 76.2701 35.5002 72.4501 40.0602C68.5301 44.7602 68.8201 51.9402 73.4501 56.2602C77.6601 60.1802 85.4901 61.0702 90.2101 55.5702C94.4101 50.6902 94.1501 43.4402 89.5901 39.2502Z" fill="#E1E1E1"/>
<path d="M75.3299 41.8698C72.0199 45.1198 72.1999 51.5598 76.1399 54.4998C79.5799 57.0698 84.4598 56.9398 87.5198 53.8098C90.5798 50.6798 90.5798 44.9898 87.7099 42.0498C84.4099 38.6798 79.1199 38.1498 75.3299 41.8698Z" fill="#3F545F"/>
<path d="M50 76.8898C50 76.8898 56.19 70.6098 56.87 71.2898C57.55 71.9698 57.46 75.7798 54.5 80.0198C51.53 84.2598 45 91.8098 39.83 96.8998C34.73 101.91 27.54 107.64 26.86 107.54C26.33 107.46 24.18 106.39 23.32 105.35C22.48 104.32 24.99 99.4498 26 97.8398C27.02 96.2298 50 76.8898 50 76.8898Z" fill="#A02524"/>
<path d="M21.2302 101.85C21.1502 103.29 23.3502 105.39 23.3502 105.39L56.8702 71.3001C56.8702 71.3001 55.3002 69.5301 50.6802 72.4001C46.0202 75.3001 41.9402 78.7801 35.9202 84.6101C27.5302 92.7501 21.3102 100.41 21.2302 101.85Z" fill="#CA2C31"/>
<path d="M19.06 36.9499C17.95 38.0599 17.9 39.8399 19.14 40.8599C20.24 41.7699 22.03 41.1799 22.7 40.3599C23.37 39.5399 23.29 37.7599 22.4 36.8799C21.51 35.9899 19.74 36.2799 19.06 36.9499Z" fill="#EF8E1E"/>
<path opacity="0.5" d="M41.02 35.6498C40.18 36.5798 40.45 37.9598 41.23 38.4698C42.01 38.9798 43.18 38.9298 43.75 38.2298C44.26 37.5998 44.32 36.3398 43.54 35.5598C42.86 34.8898 41.56 35.0498 41.02 35.6498Z" fill="#EF8E1E"/>
<path d="M55.5499 11.89C55.5499 11.89 56.77 8.40997 57.49 8.36997C58.22 8.32997 59.27 11.85 59.27 11.85C59.27 11.85 62.8799 11.89 63.1199 12.42C63.4299 13.1 60.81 15.38 60.81 15.38C60.81 15.38 61.6599 18.78 61.2599 19.19C60.8099 19.64 57.7 17.85 57.7 17.85C57.7 17.85 54.5 20.08 53.81 19.47C53.21 18.94 54.4599 15.34 54.4599 15.34C54.4599 15.34 51.4599 13.15 51.6199 12.54C51.8499 11.68 55.5499 11.89 55.5499 11.89ZM97.01 95.33C98.22 96 99.74 95.62 100.3 94.33C100.81 93.18 99.8699 91.81 99.0199 91.44C98.1699 91.07 96.68 91.56 96.1399 92.53C95.61 93.49 96.28 94.93 97.01 95.33ZM114.19 65.84C113.5 64.77 112.01 64.42 111.04 65.28C110.1 66.12 110.33 67.44 110.86 68.11C111.39 68.78 112.81 69.03 113.67 68.48C114.53 67.93 114.61 66.48 114.19 65.84Z" fill="#EF8E1E"/>
</svg>
