<svg width="296" height="296" viewBox="0 0 296 296" fill="none" xmlns="http://www.w3.org/2000/svg">
<g filter="url(#filter0_d_2_2792)">
<path d="M148 184C170 184 188 166 188 144C188 122 170 104 148 104C126 104 108 122 108 144C108 166 126 184 148 184Z" fill="#42A846"/>
<path d="M131 144L142.32 155.32L165 132.68" stroke="white" stroke-width="1.5" stroke-linecap="round" stroke-linejoin="round"/>
<path d="M148 191C122.043 191 101 169.957 101 144H99C99 171.062 120.938 193 148 193V191ZM195 144C195 169.957 173.957 191 148 191V193C175.062 193 197 171.062 197 144H195ZM148 97C173.957 97 195 118.043 195 144H197C197 116.938 175.062 95 148 95V97ZM148 95C120.938 95 99 116.938 99 144H101C101 118.043 122.043 97 148 97V95Z" fill="white"/>
</g>
<defs>
<filter id="filter0_d_2_2792" x="0" y="0" width="296" height="296" filterUnits="userSpaceOnUse" color-interpolation-filters="sRGB">
<feFlood flood-opacity="0" result="BackgroundImageFix"/>
<feColorMatrix in="SourceAlpha" type="matrix" values="0 0 0 0 0 0 0 0 0 0 0 0 0 0 0 0 0 0 127 0" result="hardAlpha"/>
<feOffset dy="4"/>
<feGaussianBlur stdDeviation="50"/>
<feComposite in2="hardAlpha" operator="out"/>
<feColorMatrix type="matrix" values="0 0 0 0 0.792157 0 0 0 0 0.792157 0 0 0 0 0.792157 0 0 0 0.3 0"/>
<feBlend mode="normal" in2="BackgroundImageFix" result="effect1_dropShadow_2_2792"/>
<feBlend mode="normal" in="SourceGraphic" in2="effect1_dropShadow_2_2792" result="shape"/>
</filter>
</defs>
</svg>
