<svg width="24" height="25" viewBox="0 0 24 25" fill="none" xmlns="http://www.w3.org/2000/svg">
<path d="M23 3.51006C23 3.51006 20.982 4.70206 19.86 5.04006C19.2577 4.34757 18.4573 3.85675 17.567 3.63398C16.6767 3.41122 15.7395 3.46725 14.8821 3.79451C14.0247 4.12177 13.2884 4.70446 12.773 5.46377C12.2575 6.22309 11.9877 7.12239 12 8.04006V9.04006C10.2426 9.08562 8.50127 8.69587 6.93101 7.9055C5.36074 7.11513 4.01032 5.94869 3 4.51006C3 4.51006 -1 13.5101 8 17.5101C5.94053 18.908 3.48716 19.609 1 19.5101C10 24.5101 21 19.5101 21 8.01006C21 7.73206 20.972 7.45406 20.92 7.18006C21.94 6.17406 23 3.51006 23 3.51006Z" stroke="#93989A" stroke-width="1.5" stroke-linecap="round" stroke-linejoin="round"/>
</svg>
