<svg width="40" height="40" viewBox="0 0 40 40" fill="none" xmlns="http://www.w3.org/2000/svg">
<rect width="40" height="40" rx="20" fill="#03A9F4"/>
<path d="M29.1666 12.5084C29.1666 12.5084 27.4849 13.5017 26.5499 13.7834C26.048 13.2063 25.381 12.7973 24.6391 12.6117C23.8972 12.426 23.1162 12.4727 22.4017 12.7454C21.6871 13.0181 21.0736 13.5037 20.6441 14.1365C20.2145 14.7692 19.9897 15.5187 19.9999 16.2834V17.1167C18.5354 17.1547 17.0843 16.8299 15.7758 16.1713C14.4672 15.5126 13.3418 14.5406 12.4999 13.3417C12.4999 13.3417 9.16659 20.8417 16.6666 24.175C14.9504 25.34 12.9059 25.9242 10.8333 25.8417C18.3333 30.0084 27.4999 25.8417 27.4999 16.2584C27.4999 16.0267 27.4766 15.795 27.4333 15.5667C28.2833 14.7284 29.1666 12.5084 29.1666 12.5084Z" stroke="white" stroke-width="1.5" stroke-linecap="round" stroke-linejoin="round"/>
</svg>
