<svg width="24" height="25" viewBox="0 0 24 25" fill="none" xmlns="http://www.w3.org/2000/svg">
<path d="M21.0799 9.08003V15.92C21.0799 17.04 20.4799 18.08 19.5099 18.65L13.5699 22.08C12.5999 22.64 11.3999 22.64 10.4199 22.08L4.47991 18.65C3.50991 18.09 2.90991 17.05 2.90991 15.92V9.08003C2.90991 7.96003 3.50991 6.91999 4.47991 6.34999L10.4199 2.92C11.3899 2.36 12.5899 2.36 13.5699 2.92L19.5099 6.34999C20.4799 6.91999 21.0799 7.95003 21.0799 9.08003Z" stroke="#93989A" stroke-width="1.5" stroke-linecap="round" stroke-linejoin="round"/>
<path d="M11.9999 11.4998C13.2867 11.4998 14.3299 10.4566 14.3299 9.1698C14.3299 7.88298 13.2867 6.83984 11.9999 6.83984C10.7131 6.83984 9.66992 7.88298 9.66992 9.1698C9.66992 10.4566 10.7131 11.4998 11.9999 11.4998Z" stroke="#93989A" stroke-width="1.5" stroke-linecap="round" stroke-linejoin="round"/>
<path d="M16 17.1599C16 15.3599 14.21 13.8999 12 13.8999C9.79 13.8999 8 15.3599 8 17.1599" stroke="#93989A" stroke-width="1.5" stroke-linecap="round" stroke-linejoin="round"/>
</svg>
